# xmcd
# 
# Track frame offsets:
#     150
#     11112
#     23847
#     35425
#     50025
#     64337
#     82100
#     95400
#     111100
#     127362
#     141950
#     158700
#     172325
#     186512
#     203100
#     217975
#     231250
#     247662
#     262650
#     280500
# 
# Disc length: 3975
# 
# Revision: 1
# Processed by: cddbd v1.5.2PL0 Copyright (c) Steve Scherf et al.
# Submitted via: fre:ac v1.0.17
# 
DISCID=250f8514
DTITLE=ザ・タイガース - ゴールデン☆ベスト
DYEAR=2003
DGENRE=JPop
TTITLE0=僕のマリー
TTITLE1=シーサイド・バウンド
TTITLE2=モナリザの微笑
TTITLE3=君だけに愛を
TTITLE4=銀河のロマンス
TTITLE5=花の首飾り
TTITLE6=シー・シー・シー
TTITLE7=廃墟の鳩
TTITLE8=青い鳥
TTITLE9=美しき愛の掟
TTITLE10=嘆き
TTITLE11=スマイル・フォーミー
TTITLE12=君を許す
TTITLE13=ラヴ・ラヴ・ラヴ
TTITLE14=都会
TTITLE15=素晴らしい旅行
TTITLE16=誓いの明日
TTITLE17=十年ロマンス
TTITLE18=色つきの女でいてくれよ
TTITLE19=銀河旅行
EXTD=YEAR: 2003
EXTT0=
EXTT1=
EXTT2=
EXTT3=
EXTT4=
EXTT5=
EXTT6=
EXTT7=
EXTT8=
EXTT9=
EXTT10=
EXTT11=
EXTT12=
EXTT13=
EXTT14=
EXTT15=
EXTT16=
EXTT17=
EXTT18=
EXTT19=
PLAYORDER=
